<svg id="Layer_2" data-name="Layer 2" xmlns="http://www.w3.org/2000/svg" viewBox="0 0 164 42"><defs><style>.cls-1{fill:#5186fe;}.cls-2{fill:#434c54;}</style></defs><title>logo</title><polygon class="cls-1" points="9.612 0 0.771 7.852 26.592 11.169 35.976 2.939 9.612 0"/><path class="cls-1" d="M9.488,0.234l0.145-.122V0.251L9.488,0.234h0ZM9.553,9.687L9.417,26.234,0.022,34.45l0.646-25.9Z" transform="translate(-0.022)"/><polygon class="cls-1" points="26.795 37.88 35.634 30.029 9.815 26.713 0.429 34.941 26.795 37.88"/><path class="cls-1" d="M26.961,37.648l-0.145.122v-0.14l0.141,0.017h0ZM26.9,28.195l0.138-16.547L36.43,3.424l-0.645,25.9Z" transform="translate(-0.022)"/><path class="cls-2" d="M85.827,4.72L78.479,32.632H71.531l-4.62-17.907a14.925,14.925,0,0,1-.446-3.134H66.386a19.107,19.107,0,0,1-.5,3.134L61.149,32.632H53.913L46.6,4.72h6.848l3.919,18.588A22.336,22.336,0,0,1,57.74,26.5h0.116a15.492,15.492,0,0,1,.563-3.27L63.462,4.72h6.712l4.558,18.747a22.982,22.982,0,0,1,.446,3h0.078a20.074,20.074,0,0,1,.408-3.109L79.5,4.72h6.324Z" transform="translate(-0.022)"/><path class="cls-2" d="M105.537,24.419H92.579q0.311,4.34,5.451,4.34a10.619,10.619,0,0,0,5.761-1.558v4.438a15.1,15.1,0,0,1-7.157,1.479q-4.811,0-7.468-2.677a10.132,10.132,0,0,1-2.659-7.464,10.689,10.689,0,0,1,2.866-7.864,9.55,9.55,0,0,1,7.061-2.9,8.668,8.668,0,0,1,6.721,2.588,9.99,9.99,0,0,1,2.377,7.026v2.592h0Zm-5.683-3.777q0-4.282-3.454-4.282a3.294,3.294,0,0,0-2.55,1.225,5.574,5.574,0,0,0-1.309,3.056h7.313Z" transform="translate(-0.022)"/><path class="cls-2" d="M115.39,30.317h-0.077v2.317h-6.126V3.124h6.13V15.7h0.077a7.27,7.27,0,0,1,6.461-3.484,7.086,7.086,0,0,1,5.917,2.648,11.447,11.447,0,0,1,2.075,7.242,12.393,12.393,0,0,1-2.424,8,7.885,7.885,0,0,1-6.479,3.018A6.255,6.255,0,0,1,115.39,30.317Zm-0.175-8.409v2.044a4.671,4.671,0,0,0,1.106,3.192,3.593,3.593,0,0,0,2.831,1.266,3.753,3.753,0,0,0,3.249-1.625,7.864,7.864,0,0,0,1.154-4.6,6.258,6.258,0,0,0-1.057-3.864,3.561,3.561,0,0,0-3.015-1.392,3.892,3.892,0,0,0-3.056,1.382,5.263,5.263,0,0,0-1.211,3.6h0Z" transform="translate(-0.022)"/><path class="cls-2" d="M139.946,32.632h-6.127V3.124h6.127V32.632Z" transform="translate(-0.022)"/><path class="cls-2" d="M164.022,12.7l-8.071,21.527q-2.909,7.766-8.767,7.766a11.2,11.2,0,0,1-3.666-.5V36.579a5.141,5.141,0,0,0,2.658.72,3.321,3.321,0,0,0,3.3-2.238l1.047-2.473L142.453,12.7h6.787l3.7,12.127a15.768,15.768,0,0,1,.544,2.667h0.072a18.793,18.793,0,0,1,.641-2.627L157.946,12.7h6.075Z" transform="translate(-0.022)"/></svg>